<svg xmlns="http://www.w3.org/2000/svg" version="1.0" width="512.000000pt" height="512.000000pt" viewBox="0 0 512.000000 512.000000" preserveAspectRatio="xMidYMid meet">

<g transform="translate(0.000000,512.000000) scale(0.100000,-0.100000)" fill="#6e7691" stroke="none">
<path d="M3263 4749 c-114 -44 -59 64 -927 -1795 -434 -929 -799 -1709 -811 -1732 l-21 -44 -361 469 c-199 257 -372 478 -384 489 -13 12 -44 32 -69 45 -42 22 -58 24 -245 27 -187 3 -204 2 -259 -19 -192 -72 -246 -320 -100 -464 61 -59 112 -77 239 -84 l109 -6 462 -600 c262 -341 479 -612 500 -628 112 -82 268 -70 367 29 47 47 -17 -87 978 2041 l804 1722 680 3 c666 3 681 3 725 24 97 45 170 156 170 259 0 111 -79 225 -184 264 -56 21 -64 21 -839 20 -759 0 -784 -1 -834 -20z" fill="#6e7691"/>
</g>
</svg>